<mxfile host="app.diagrams.net" modified="2023-12-08T01:00:57.271Z" agent="Mozilla/5.0 (Windows NT 10.0; Win64; x64) AppleWebKit/537.36 (KHTML, like Gecko) Chrome/119.0.0.0 Safari/537.36 Edg/119.0.0.0" etag="MjC6kB1rcPgL8iXAY5TR" version="22.1.7" type="device">
  <diagram name="Page-1" id="hpNmfHdBaL6iuyIVaZM8">
    <mxGraphModel dx="1242" dy="535" grid="1" gridSize="10" guides="1" tooltips="1" connect="1" arrows="1" fold="1" page="1" pageScale="1" pageWidth="850" pageHeight="1100" math="0" shadow="0">
      <root>
        <mxCell id="0" />
        <mxCell id="1" parent="0" />
      </root>
    </mxGraphModel>
  </diagram>
</mxfile>
